<?xml version="1.0" encoding="utf-8"?>
<!-- Generator: Adobe Illustrator 19.2.0, SVG Export Plug-In . SVG Version: 6.00 Build 0)  -->
<svg version="1.1" id="Layer_1" xmlns="http://www.w3.org/2000/svg" xmlns:xlink="http://www.w3.org/1999/xlink" x="0px" y="0px"
	 width="538.3px" height="313.6px" viewBox="0 0 538.3 313.6" style="fill: #ffffff;" xml:space="preserve"
	>
<style type="text/css">
	.st0{fill:#ffffff;}
</style>
<g>
	<path class="st0" d="M22.1,22.2h49.3c0.9,0,1.6,0.3,2.1,0.9c0.5,0.6,0.8,1.3,0.8,2.1v1.3c0,2-1,3-3,3H23.8v93.4
		c0,0.8-0.3,1.5-0.8,2.1c-0.5,0.6-1.3,0.9-2.1,0.9h-1.5c-0.9,0-1.6-0.3-2.1-0.9c-0.5-0.6-0.8-1.3-0.8-2.1V28.1c0-1.9,0.3-3.3,1-4.4
		C18.2,22.7,19.7,22.2,22.1,22.2z M29.8,68.4h33.3c0.8,0,1.5,0.3,2.1,0.9s0.9,1.3,0.9,2.1v1.3c0,0.9-0.3,1.6-0.9,2.1
		c-0.6,0.5-1.3,0.8-2.1,0.8H29.8c-1.9,0-2.8-1-2.8-3v-1.3c0-0.8,0.3-1.5,0.8-2.1C28.3,68.7,29,68.4,29.8,68.4z"/>
	<path class="st0" d="M163.4,22.2h1.5c0.8,0,1.5,0.3,2.1,0.9c0.6,0.6,0.9,1.3,0.9,2.1v63.5c0,7.1-1.2,13.2-3.6,18.4
		c-2.4,5.2-5.4,9.1-9.2,11.6c-6.9,4.8-14,7.3-21.2,7.3h-1.8c-7.2,0-14.4-2.4-21.5-7.3c-3.8-2.6-6.8-6.4-9.1-11.6
		c-2.3-5.2-3.5-11.3-3.5-18.4V25.2c0-0.8,0.3-1.5,0.8-2.1c0.5-0.6,1.3-0.9,2.1-0.9h1.5c0.9,0,1.6,0.3,2.1,0.9
		c0.5,0.6,0.8,1.3,0.8,2.1v63.5c0,5.8,0.9,10.8,2.8,15c1.9,4.2,4.3,7.3,7.4,9.4c5.3,3.6,10.9,5.4,16.7,5.6h1.3
		c5.6-0.2,11.2-2.1,16.6-5.8c3-2,5.4-5.1,7.3-9.3c1.9-4.2,2.8-9.2,2.8-15V25.2c0-0.8,0.3-1.5,0.8-2.1
		C161.8,22.5,162.5,22.2,163.4,22.2z"/>
	<path class="st0" d="M192.6,22.2h65.7c0.9,0,1.6,0.3,2.1,0.9c0.5,0.6,0.8,1.3,0.8,2.1v1.6c0,1.8-1,2.7-3,2.7h-65.7
		c-2,0-3-0.9-3-2.7v-1.6c0-0.8,0.3-1.5,0.9-2.1C191.1,22.5,191.8,22.2,192.6,22.2z M224.5,33.5h1.5c2,0,3,0.9,3,2.8v86.6
		c0,0.8-0.3,1.5-0.8,2.1c-0.5,0.6-1.3,0.9-2.1,0.9h-1.5c-0.9,0-1.6-0.3-2.1-0.9c-0.5-0.6-0.8-1.3-0.8-2.1V36.3
		C221.6,34.4,222.6,33.5,224.5,33.5z"/>
	<path class="st0" d="M347.2,22.2h1.5c0.8,0,1.5,0.3,2.1,0.9c0.6,0.6,0.9,1.3,0.9,2.1v63.5c0,7.1-1.2,13.2-3.6,18.4
		c-2.4,5.2-5.4,9.1-9.2,11.6c-6.9,4.8-14,7.3-21.2,7.3H316c-7.2,0-14.4-2.4-21.5-7.3c-3.8-2.6-6.8-6.4-9.1-11.6
		c-2.3-5.2-3.5-11.3-3.5-18.4V25.2c0-0.8,0.3-1.5,0.8-2.1c0.5-0.6,1.3-0.9,2.1-0.9h1.5c0.9,0,1.6,0.3,2.1,0.9
		c0.5,0.6,0.8,1.3,0.8,2.1v63.5c0,5.8,0.9,10.8,2.8,15c1.9,4.2,4.3,7.3,7.4,9.4c5.3,3.6,10.9,5.4,16.7,5.6h1.3
		c5.6-0.2,11.2-2.1,16.6-5.8c3-2,5.4-5.1,7.3-9.3c1.9-4.2,2.8-9.2,2.8-15V25.2c0-0.8,0.3-1.5,0.8-2.1
		C345.6,22.5,346.4,22.2,347.2,22.2z"/>
	<path class="st0" d="M387.1,22.2h20.3c23.9,0,35.8,9.4,35.8,28.1c0,7.3-2.3,13.8-7,19.5c-4.6,5.7-11.9,8.5-21.9,8.5h-1.6l32,42
		c1.2,1.8,1.8,2.9,1.8,3.3c0,1.5-0.7,2.2-2.1,2.2h-3c-1.3,0-2.2-0.4-2.8-1.2l-34.2-45c-1.1-1.6-1.6-2.9-1.6-3.8
		c0-3.2,1.7-4.7,5.2-4.7h6.5c4.1,0,7.7-0.7,10.7-2.1c3-1.4,5.1-3.2,6.5-5.3c2.8-4.2,4.1-8.6,4.1-13.2c0-13.9-9.5-20.9-28.6-20.9
		h-18.9v93.3c0,0.8-0.3,1.5-0.8,2.1c-0.5,0.6-1.3,0.9-2.1,0.9h-1.5c-0.9,0-1.6-0.3-2.1-0.9c-0.5-0.6-0.8-1.3-0.8-2.1V29.2
		c0-2.7,0.4-4.5,1.3-5.5C382.9,22.7,384.6,22.2,387.1,22.2z"/>
	<path class="st0" d="M479.4,22.2h51.7c0.8,0,1.5,0.3,2.1,0.9c0.6,0.6,0.9,1.3,0.9,2.1v1.3c0,0.9-0.3,1.6-0.9,2.1
		c-0.6,0.5-1.3,0.8-2.1,0.8h-50.2v89.1h50.2c0.8,0,1.5,0.3,2.1,0.8c0.6,0.5,0.9,1.3,0.9,2.1v1.3c0,0.8-0.3,1.5-0.9,2.1
		c-0.6,0.6-1.3,0.9-2.1,0.9h-51.8c-2.4,0-3.9-0.5-4.7-1.6s-1.1-2.5-1.1-4.4V28c0-2,0.4-3.4,1.3-4.4
		C475.7,22.7,477.2,22.2,479.4,22.2z M489.8,68.4h31.7c0.9,0,1.6,0.3,2.1,0.9c0.5,0.6,0.8,1.3,0.8,2.1v1.3c0,2-1,3-3,3h-31.7
		c-2,0-3-1-3-3v-1.3c0-0.8,0.3-1.5,0.8-2.1C488.2,68.7,488.9,68.4,489.8,68.4z"/>
	<path class="st0" d="M24.5,173.1c3.5-1.6,6.6-2.7,9.3-3.1c2.7-0.4,5.4-0.7,8-0.7c2.6,0,5.3,0.2,7.9,0.7c2.7,0.4,5.6,1.4,8.8,2.8
		c3.2,1.4,6.1,3.3,8.7,5.5c2.6,2.2,4.8,5.3,6.8,9.2c2,3.9,3.2,8.4,3.7,13.5c0,2.2-1,3.3-3,3.3h-1.3c-1.8,0-2.8-0.9-3-2.7
		c-0.5-4.1-1.5-7.8-3.1-11c-1.6-3.2-3.4-5.6-5.5-7.3c-2.1-1.7-4.4-3.1-7.1-4.1c-3.9-1.7-7.6-2.5-11-2.5s-6.2,0.2-8.4,0.6
		c-2.2,0.4-4.7,1.2-7.5,2.5c-2.8,1.3-5.2,3-7.3,5.1c-2.1,2.1-3.8,5.1-5.3,9c-1.4,3.8-2.1,8.3-2.1,13.3v29c0,5,0.8,9.5,2.4,13.3
		c1.6,3.8,3.5,6.8,5.7,9c2.2,2.1,4.8,3.8,7.8,5.1c4.7,2.1,9.2,3.1,13.3,3.1s7.7-0.4,10.6-1.1c2.9-0.7,5.8-2,8.7-3.9
		c6.1-3.8,9.2-11,9.2-21.5c0-1.7,0.3-2.8,0.8-3.3c0.5-0.5,1.3-0.7,2.1-0.7h1.2c2,0,3,1,3,3c0,6-1,11.3-2.9,15.8
		c-1.9,4.5-4.2,8-6.7,10.3c-2.6,2.3-5.6,4.2-9,5.6c-5.3,2.1-10,3.1-14,3.1s-7.5-0.2-10.4-0.7c-2.9-0.5-6.2-1.6-9.8-3.3
		c-3.6-1.7-6.8-3.8-9.5-6.4c-2.7-2.6-5-6.2-6.9-10.9c-1.9-4.7-2.8-10-2.8-16.1v-30c0-6.2,0.9-11.7,2.7-16.4c1.8-4.7,4-8.4,6.7-10.9
		C17.9,176.8,21,174.7,24.5,173.1z"/>
	<path class="st0" d="M136,173.7c3.6-1.5,6.7-2.5,9.3-2.9c2.7-0.4,5.4-0.6,8.2-0.6c2.8,0,5.6,0.2,8.4,0.7c2.8,0.4,5.9,1.5,9.4,3
		c3.5,1.6,6.5,3.6,9.1,6.1c2.6,2.5,4.7,6.1,6.5,10.7c1.8,4.6,2.7,9.9,2.7,15.9v30c0,6.2-0.9,11.7-2.7,16.4c-1.8,4.7-4,8.4-6.7,11
		c-2.6,2.6-5.7,4.6-9.1,6.2c-5.5,2.5-11.3,3.7-17.5,3.7c-6.4,0-11.9-1.1-16.4-3.3c-4.5-2.2-8-4.5-10.6-7.1
		c-2.6-2.6-4.7-6.2-6.5-10.9c-1.8-4.7-2.7-10-2.7-16.1v-30c0-6.2,0.9-11.6,2.7-16.3c1.8-4.6,4-8.2,6.6-10.7
		C129.4,177.2,132.5,175.2,136,173.7z M167.5,180.3c-2.8-1.2-5.3-2-7.4-2.4c-2.1-0.3-4.3-0.5-6.5-0.5c-2.2,0-4.4,0.2-6.6,0.5
		c-2.2,0.3-4.7,1.1-7.5,2.4c-2.8,1.2-5.3,2.9-7.3,4.9c-2.1,2-3.8,4.9-5.3,8.7c-1.4,3.8-2.1,8.2-2.1,13.2v29c0,5,0.7,9.5,2.1,13.3
		c1.4,3.8,3.2,6.8,5.3,9c2.1,2.1,4.6,3.8,7.3,5.1c2.8,1.3,5.3,2.1,7.5,2.5c2.2,0.4,4.4,0.6,6.6,0.6s4.4-0.2,6.6-0.6
		c2.2-0.4,4.7-1.2,7.5-2.5c2.8-1.3,5.2-3,7.3-5.1c2.1-2.1,3.8-5.1,5.3-9c1.4-3.8,2.1-8.3,2.1-13.3v-29c0-5-0.7-9.4-2.2-13.2
		c-1.5-3.8-3.3-6.7-5.3-8.7C172.7,183.2,170.3,181.6,167.5,180.3z"/>
	<path class="st0" d="M306.1,169.8c1.6,0,3,0.5,4.1,1.6c1.2,1,1.8,2.6,1.8,4.8v94.7c0,0.8-0.3,1.5-0.8,2.1c-0.5,0.6-1.3,0.9-2.1,0.9
		h-1.3c-0.9,0-1.6-0.3-2.1-0.9c-0.5-0.6-0.8-1.3-0.8-2.1v-88.1L279,246.4c-1.1,2.6-2.9,4-5.3,4.3c-2.9,0-4.9-1.4-6.1-4.1l-27.2-64.4
		v88.7c0,0.8-0.3,1.5-0.9,2.1c-0.6,0.6-1.3,0.9-2.1,0.9h-1.5c-0.8,0-1.5-0.3-2-0.9c-0.5-0.6-0.8-1.3-0.8-2.1v-94.7
		c0-4.2,1.9-6.4,5.8-6.4c2.7,0,4.6,1.5,5.9,4.4l28.4,67.1l26.9-67.1C301.6,171.2,303.5,169.8,306.1,169.8z"/>
	<path class="st0" d="M364.4,170.2h51.7c0.8,0,1.5,0.3,2.1,0.9c0.6,0.6,0.9,1.3,0.9,2.1v1.3c0,0.9-0.3,1.6-0.9,2.1
		c-0.6,0.5-1.3,0.8-2.1,0.8h-50.2v89.1h50.2c0.8,0,1.5,0.3,2.1,0.8c0.6,0.5,0.9,1.3,0.9,2.1v1.3c0,0.8-0.3,1.5-0.9,2.1
		c-0.6,0.6-1.3,0.9-2.1,0.9h-51.8c-2.4,0-3.9-0.5-4.7-1.6s-1.1-2.5-1.1-4.4V176c0-2,0.4-3.4,1.3-4.4
		C360.7,170.7,362.2,170.2,364.4,170.2z M374.8,216.4h31.7c0.9,0,1.6,0.3,2.1,0.9c0.5,0.6,0.8,1.3,0.8,2.1v1.3c0,2-1,3-3,3h-31.7
		c-2,0-3-1-3-3v-1.3c0-0.8,0.3-1.5,0.8-2.1C373.2,216.7,373.9,216.4,374.8,216.4z"/>
	<path class="st0" d="M462.5,193.7c0-6.4,2.6-11.9,7.8-16.7c5.2-4.7,12.4-7.1,21.4-7.1s16.6,2.4,22.8,7.2c6.2,4.8,9.4,11.9,9.8,21.4
		c0,0.8-0.3,1.5-0.9,2.1c-0.6,0.6-1.3,1-2.1,1H520c-0.7,0-1.3-0.3-1.9-0.8c-0.6-0.5-0.9-1.2-1-2c-0.3-7.5-2.8-13-7.5-16.4
		s-10.4-5.1-17-5.1c-7.1,0-12.6,1.6-16.6,4.9c-3.9,3.3-5.9,7.3-5.9,12.1c0,4.8,1.4,8.6,4.1,11.5c3.8,3.8,11,7.8,21.5,11.8
		c12.4,4.9,20.7,9.9,24.9,14.8c3.2,3.8,4.7,9.1,4.7,16.1c0,7-2.8,13-8.5,18c-5.7,5-13.7,7.5-24.2,7.5c-7.8,0-15.1-2.1-22.1-6.4
		c-3.7-2.3-6.6-5.5-9-9.5c-2.3-4.1-3.6-8.8-3.8-14.1c0-2.1,1-3.1,3-3.1h1.3c1.8,0,2.8,0.9,3,2.8c0.2,4.3,1.3,8.1,3.3,11.3
		c2,3.2,4.4,5.6,7.4,7.2c5.7,3.1,12,4.6,18.9,4.6c6.9,0,12.5-1.8,16.9-5.4c4.4-3.6,6.6-8.1,6.6-13.5c0-5.5-1.8-9.8-5.3-12.7
		c-2.9-2.4-6-4.4-9.3-6.1c-4.3-2.1-11.2-5-20.4-8.7c-7.1-3.2-12.3-6.8-15.5-10.9C464.1,205.3,462.5,200,462.5,193.7z"/>
</g>
</svg>
